<?xml version="1.0" encoding="utf-8"?>
<!-- Generator: Adobe Illustrator 24.1.1, SVG Export Plug-In . SVG Version: 6.00 Build 0)  -->
<svg version="1.1" id="Layer_1" xmlns="http://www.w3.org/2000/svg" xmlns:xlink="http://www.w3.org/1999/xlink" x="0px" y="0px"
	 viewBox="0 0 1080 1080" style="enable-background:new 0 0 1080 1080;" xml:space="preserve">
<style type="text/css">
	.st0{fill:#CC2954;}
</style>
<g>
	<path class="st0" d="M549.56,552.11c11.7,0.69,30.41,17.68,31.44,27.94c0.18,1.81-0.05,3.74-0.5,5.52
		c-4.57,18.04-28.33,28.51-44.57,19.6c-12.52-6.87-23.49-15.56-31.09-27.9c-15.63-25.37-7.64-55.38,18.48-69.63
		c1.15-0.63,2.31-1.26,4.12-2.24c-11.63-11.25-20.76-23.62-21.92-40.68c-8.19,0-16.02,0-24.87,0c0,49.94,0,100,0,150.8
		c-7.29-1.67-13.68-2.51-19.51-4.79c-2.08-0.82-3.93-5.12-3.95-7.85c-0.26-37.48-0.17-74.96-0.17-112.44c0-8.44,0-16.89,0-25.83
		c-7.28,0-13.76,0-21.04,0c0,50.11,0,99.96,0,150.84c-7.3-1.59-13.83-2.49-19.91-4.64c-1.86-0.66-3.51-4.76-3.55-7.3
		c-0.29-19.93-0.14-39.87-0.18-59.81c-0.01-7.34-0.17-15.97-8.67-17.64c-7.81-1.54-10.75,6.64-13.42,12.53
		c-2.59,5.71-3.98,11.97-5.9,17.98c-8.53-0.79-21.66-11.53-22.93-19.34c-0.38-2.36,0.4-5.45,1.76-7.44
		c3.12-4.56,1.37-7.67-1.74-11.14c-14.08-15.7-36.64-12.43-48.84,7.36c-6.17,10.01-7.41,20.97-4.43,32.27
		c2.46,9.32,8.37,11.46,16.01,5.76c7.56-5.63,14.34-12,14.26-22.45c11.75,1.79,28.47,17.68,29.87,27.86
		c0.25,1.79,0.01,3.73-0.38,5.52c-4.05,18.95-27.18,29.37-43.57,19.45c-18.96-11.48-33.58-26.42-35.62-49.84
		c-1.76-20.17,8.76-38.44,25.82-46.55c16.65-7.92,38.99-3.81,53.23,9.75c2.11,2.01,4.36,3.86,7.41,6.55
		c11.26-9.9,23.5-10.73,37.14,2.66c0-10.36,0-18.61,0-26.85c0-8.23,0-16.46,0-25.36c-46.8,0-93.17,0-140.55,0
		c0,49.83,0,99.89,0,150.79c-7.29-1.67-13.67-2.52-19.49-4.79c-2.1-0.82-4.05-5.05-4.08-7.74c-0.28-30.83-0.18-61.67-0.18-92.5
		c0-15.1,0-30.21,0-45.86c-7.16,0-13.62,0-20.89,0c0,50.13,0,99.99,0,150.64c-40.05-7.76-78.03-17.93-108.09-46.31
		c-21.99-20.76-21.43-49.5,3.1-67.27c17.49-12.67,37.58-21.76,56.54-32.39c2.49-1.39,5.15-2.48,9.63-4.61
		c-4.1-0.3-6.27-0.6-8.45-0.61c-25.25-0.03-50.51,0.03-75.76-0.09c-2.62-0.01-5.24-1.03-7.86-1.58c0.16-0.87,0.31-1.74,0.47-2.61
		c50.05,0,100.1,0,150,0c2.36-15.69,16.06-9.44,24.24-15.04c0.31,5.46,0.56,9.63,0.82,14.27c61.62,0,122.91,0,184.24,0
		c1.4-15.59,15.83-8.03,23.77-14.73c0.39,5.82,0.68,10.11,1.02,15.18c2.97,0,5.55,0,8.14,0c45.19,0.01,90.38,0,135.57,0.1
		c2.81,0.01,5.61,0.91,8.42,1.4c-0.14,0.86-0.28,1.72-0.42,2.58c-3.57,0.33-7.15,0.67-11.53,1.08c0,25.13,0,50.06,0,74.99
		c0,24.95,0,49.9,0,75.8c-7.12-1.57-13.58-2.63-19.76-4.6c-1.64-0.52-3.32-3.78-3.41-5.84c-0.37-9.02,0.13-18.08-0.23-27.1
		c-0.8-20.2-6.88-38.13-23.47-51.12c-13.65-10.68-28.45-10.98-42.66-0.99c-13.99,9.84-20.48,27.85-15.43,42.85
		c2.82,8.37,9.27,11.16,16.79,6.74C541.59,570.25,548.48,563.46,549.56,552.11z M203.26,492.61
		c-19.99,13.91-39.14,25.53-56.25,39.61c-17.95,14.78-16.65,31.14,1.3,46.14c12.47,10.43,27.29,16.23,42.62,20.84
		c3.9,1.17,7.96,1.84,12.33,2.83C203.26,565.66,203.26,530.43,203.26,492.61z M597.12,464.13c-21.01,0-41.67-0.19-62.32,0.26
		c-2.34,0.05-5.31,3.23-6.76,5.69c-5.07,8.58-1.16,26.16,6.84,32.2c0.96,0.73,2.4,1.23,3.6,1.2c23.97-0.54,41.15,11.47,55.08,29.59
		c0.81,1.06,1.94,1.88,4.14,3.98c0-23.1,0.01-44.55-0.02-65.99C597.65,468.98,597.34,466.91,597.12,464.13z"/>
	<path class="st0" d="M739.91,520.92c-14.03-16.91-37.8-28.15-27.76-56.14c-4.4-0.65-8.84-1.31-13.28-1.97
		c13.84-5.47,280.7-3.74,284.86,0.59c-4.12,0.41-7.61,0.76-11.91,1.19c0,49.77,0,99.6,0,150.86c-9.66-2.11-18.33-3.8-26.88-5.92
		c-29.17-7.24-56.58-18.17-79.41-38.54c-24.15-21.53-23.61-50.19,1.65-70.28c5.58-4.44,11.68-8.38,17.96-11.77
		c14.93-8.06,30.1-15.66,46.47-24.12c-33.85,0-66.45,0-100.1,0c0,49.87,0,99.92,0,150.53c-37.46-5.4-73.49-11.52-105.44-31.45
		c-2.25-1.4-4.53-2.81-6.58-4.47c-19.14-15.44-17.91-35.14,2.99-48.05C728.1,527.92,733.82,524.57,739.91,520.92z M807.51,464.09
		c-13.33,0-25.87,0.98-38.19-0.27c-13-1.31-21.68,4.6-29.72,13.22c-11.91,12.76-11.13,26.3,2.72,36.82c2.03,1.54,6.35,1.75,8.8,0.7
		c6.69-2.86,12.96-6.72,19.74-10.38c2.86,5,5.4,9.04,7.55,13.27c5.66,11.12,3.92,16.6-6.82,23.03c-8.88,5.31-17.9,10.42-26.44,16.22
		c-9.3,6.31-10.18,14.37-2.03,21.88c17.98,16.57,40.86,20.75,64.38,25.28C807.51,556.81,807.51,511.01,807.51,464.09z
		 M947.64,493.87c-3.31,1.97-5.4,3.04-7.31,4.38c-17.37,12.14-35.56,23.29-51.79,36.8c-13.9,11.58-12.86,26.61,0.07,39.52
		c11.38,11.36,25.63,17.76,40.65,22.63c5.86,1.9,11.86,3.37,18.39,5.2C947.64,565.68,947.64,530.47,947.64,493.87z"/>
	<path class="st0" d="M907.63,635.68c-8.95-0.78-17.29-5.46-23.86-12.65c-6.56-7.18-1.42-19.05,8.79-21.58
		c8.94-2.22,26.08,5.49,30.42,13.68C928.01,624.61,920.25,635.8,907.63,635.68z"/>
</g>
</svg>
